HIERARCHY
ROOT hip
{
	OFFSET 0.000000 0.000000 0.000000 
	CHANNELS 6 Xposition Yposition Zposition Xrotation Zrotation Yrotation
	JOINT abdomen
	{
		OFFSET 0.000000 3.402643 0.000000 
		CHANNELS 3 Xrotation Zrotation Yrotation
		JOINT chest
		{
			OFFSET 0.000000 8.438565 -0.680529 
			CHANNELS 3 Xrotation Zrotation Yrotation
			JOINT neck
			{
				OFFSET 0.000000 10.207942 -0.272212 
				CHANNELS 3 Xrotation Zrotation Yrotation
				JOINT head
				{
					OFFSET 0.000000 3.130431 0.000000 
					CHANNELS 3 Xrotation Zrotation Yrotation
					End Site
					{
						OFFSET 0.000000 3.130435 0.000000 
					}
				}
			}
			JOINT lCollar
			{
				OFFSET 3.470700 6.669187 -0.816635 
				CHANNELS 3 Yrotation Zrotation Xrotation
				JOINT lShldr
				{
					OFFSET 3.198488 0.000000 0.000000 
					CHANNELS 3 Zrotation Yrotation Xrotation
					JOINT lForeArm
					{
						OFFSET 10.139888 0.000000 0.000000 
						CHANNELS 3 Yrotation Zrotation Xrotation
						JOINT lHand
						{
							OFFSET 8.370511 0.000000 0.000000 
							CHANNELS 3 Zrotation Yrotation Xrotation
							End Site
							{
								OFFSET 4.083176 0.000000 0.000000 
							}
						}
					}
				}
			}
			JOINT rCollar
			{
				OFFSET -3.470700 6.669187 -0.816635 
				CHANNELS 3 Yrotation Zrotation Xrotation
				JOINT rShldr
				{
					OFFSET -3.198488 0.000000 0.000000 
					CHANNELS 3 Zrotation Yrotation Xrotation
					JOINT rForeArm
					{
						OFFSET -10.139888 0.000000 0.000000 
						CHANNELS 3 Yrotation Zrotation Xrotation
						JOINT rHand
						{
							OFFSET -8.370511 0.000000 0.000000 
							CHANNELS 3 Zrotation Yrotation Xrotation
							End Site
							{
								OFFSET -4.083176 0.000000 0.000000 
							}
						}
					}
				}
			}
		}
	}
	JOINT lThigh
	{
		OFFSET 5.308129 -1.633274 1.361059 
		CHANNELS 3 Xrotation Zrotation Yrotation
		JOINT lShin
		{
			OFFSET -2.041588 -20.007561 0.000000 
			CHANNELS 3 Xrotation Zrotation Yrotation
			JOINT lFoot
			{
				OFFSET 0.000000 -19.190928 -1.224953 
				CHANNELS 3 Xrotation Yrotation Zrotation
				End Site
				{
					OFFSET 0.000000 -2.449906 4.627600 
				}
			}
		}
	}
	JOINT rThigh
	{
		OFFSET -5.308129 -1.633274 1.361059 
		CHANNELS 3 Xrotation Zrotation Yrotation
		JOINT rShin
		{
			OFFSET 2.041588 -20.007561 0.000000 
			CHANNELS 3 Xrotation Zrotation Yrotation
			JOINT rFoot
			{
				OFFSET 0.000000 -19.190928 -1.224953 
				CHANNELS 3 Xrotation Yrotation Zrotation
				End Site
				{
					OFFSET 0.000000 -2.449906 4.627600 
				}
			}
		}
	}
}
MOTION
Frames: 20
Frame Time: 0.016667
-0.104891 47.597919 0.347477 -10.015647 -1.614068 -18.220539 31.605772 -3.112818 2.258893 -13.264758 -7.558675 2.915585 5.177882 3.730086 4.228221 2.517855 3.363578 3.296799 -7.764619 -5.584618 -0.009630 -59.249649 8.194873 13.404306 -127.461258 3.110504 39.611488 -0.253668 22.490034 -0.093390 19.395142 3.785820 -0.009836 62.756989 -17.402388 4.365561 89.934517 -2.183395 26.530899 4.785180 23.988789 1.944255 -17.180933 4.646264 4.167429 42.837032 -0.536709 -3.198488 -16.182846 -6.831150 -14.327561 0.272920 -14.920815 -10.629939 61.634029 -0.657070 3.871457 -4.294796 -2.482059 11.975113 
-0.113921 47.659058 0.913755 -9.986488 -1.648048 -17.556501 31.602940 -3.014967 2.385675 -13.066278 -7.831137 3.005268 6.170091 3.663879 3.787162 1.334746 4.165500 2.643936 -7.676726 -5.574868 -0.009632 -59.197727 6.355496 13.238029 -128.511765 3.127285 39.950317 -0.053354 23.769522 -0.019681 19.356018 3.414732 -0.009779 63.955284 -17.314224 3.657083 85.365486 -2.347754 27.790026 4.705511 26.797081 2.125888 -16.579466 4.257313 3.811244 42.816795 -0.536702 -3.216902 -17.063940 -6.931489 -14.462929 -1.513998 -14.819586 -10.407500 64.479561 -0.842773 3.940070 -1.777831 -4.494613 11.926853 
-0.155213 47.738472 1.432077 -9.943844 -1.487083 -16.724613 31.770588 -3.102997 2.288147 -13.096407 -7.626745 2.945912 7.392889 3.069952 3.648327 0.096239 4.996248 2.225379 -7.559554 -5.662778 -0.009633 -59.467751 4.304586 12.890950 -129.279877 3.104714 39.726971 0.665422 23.250647 0.257034 19.678234 3.102180 -0.009710 64.704834 -17.866024 2.828146 81.907433 -2.464664 30.131424 4.429963 28.775846 2.128958 -16.029202 3.748503 3.285826 42.622612 -0.546277 -3.181944 -17.725243 -7.080172 -14.635493 -3.437215 -14.711405 -10.399219 66.906830 -0.995817 3.974086 -1.683885 -5.205858 11.900303 
-0.196504 47.817879 1.950372 -9.893728 -1.333730 -15.893118 31.938528 -3.191030 2.190630 -13.128247 -7.422260 2.894955 8.618748 2.485597 3.499577 -1.147673 5.827294 1.777280 -7.442382 -5.750689 -0.009635 -59.717628 2.253561 12.560506 -130.042374 3.096962 39.503590 1.397510 22.718538 0.543192 20.000448 2.779863 -0.009640 65.469910 -18.420849 1.975270 78.455742 -2.708172 32.463676 4.148706 30.754208 2.125070 -15.476994 3.251532 2.764760 42.426960 -0.559327 -3.186959 -18.365700 -7.228778 -14.752059 -5.370832 -14.615481 -10.382006 69.362167 -1.162082 4.023242 -1.598086 -5.937914 11.856086 
-0.244000 47.831741 2.464154 -9.852573 -1.310861 -15.053062 32.162842 -2.985779 2.346671 -13.009373 -7.568030 2.974952 9.508496 2.106295 3.097917 -2.383098 6.434305 1.130199 -7.754870 -5.692042 -0.009629 -59.689556 0.283097 12.622599 -130.550613 3.098572 39.656441 2.897578 22.240358 1.089532 20.147049 3.512261 -0.009749 65.098709 -19.601305 1.036329 77.538689 -2.984854 36.755421 3.725746 31.566999 1.954881 -15.043792 2.948327 2.386649 42.612766 -0.556100 -3.185083 -19.248434 -7.335467 -14.945059 -7.196817 -14.333484 -10.403026 70.676476 -1.259365 4.067442 -1.492718 -3.928777 11.948836 
-0.291498 47.845596 2.977921 -9.810882 -1.287542 -14.203019 32.388268 -2.780552 2.502739 -12.871902 -7.723515 3.054976 10.403112 1.716848 2.696735 -3.633511 7.040779 0.472397 -8.068314 -5.632025 -0.019245 -59.662735 -1.682889 12.681398 -131.060715 3.106037 39.812305 4.395155 21.738760 1.634004 20.283884 4.254427 -0.009859 64.760208 -20.784872 0.085606 76.643997 -3.324782 41.049500 3.290375 32.368950 1.771545 -14.594118 2.654930 2.024427 42.807007 -0.539893 -3.217607 -20.105328 -7.448518 -15.117712 -9.010861 -14.055532 -10.432902 72.011017 -1.357395 4.090602 -1.379510 -1.917917 12.037739 
-0.393452 47.873241 3.514640 -9.945105 -1.064750 -13.225049 32.680561 -2.966623 2.170622 -12.588216 -7.101181 2.765329 10.465776 1.200297 2.188042 -3.977007 7.099599 -0.098114 -8.067398 -5.858005 -0.009619 -59.777889 -3.532904 12.748276 -131.724228 3.148027 40.322235 4.642963 21.595631 1.714115 20.547604 4.547354 -0.009890 63.959087 -22.177134 0.424050 77.397255 -3.381587 41.831089 5.105142 30.994404 2.618437 -13.862772 2.420921 2.022336 42.856075 -0.549585 -3.213874 -20.771471 -7.973192 -15.438471 -10.290791 -13.774782 -10.325557 71.680954 -1.327769 4.059524 -0.989738 0.402851 12.116232 
-0.495406 47.900890 4.051360 -10.083591 -0.830306 -12.237713 32.975327 -3.142915 1.838529 -12.302215 -6.478322 2.485768 10.527678 0.673535 1.689681 -4.321793 7.167484 -0.668621 -8.067438 -6.092379 -0.009614 -59.886990 -5.387698 12.817956 -132.382706 3.174082 40.829773 4.886160 21.443319 1.783278 20.820313 4.843750 0.000000 63.148918 -23.566706 0.787449 78.148911 -3.418900 42.617886 6.876805 29.587675 3.411761 -13.129215 2.196399 2.016584 42.905170 -0.556273 -3.209041 -21.418877 -8.514305 -15.765184 -11.569308 -13.481194 -10.234561 71.349709 -1.308279 4.050539 -0.596711 2.673615 12.191882 
-0.611835 47.950588 4.618820 -9.986915 -0.699002 -11.329058 32.993530 -3.104370 1.525433 -11.978526 -6.148042 2.150421 10.337457 0.956706 1.494421 -4.358860 6.747432 -0.776467 -8.340910 -6.297411 -0.009604 -59.610634 -6.513528 12.620083 -133.120834 3.184163 40.960857 5.049188 21.604067 1.857592 20.654297 4.921875 -0.000838 62.465263 -24.605999 2.313245 78.902962 -3.163799 39.117947 9.646288 27.060080 4.361063 -12.497529 2.216260 2.041535 42.885803 -0.539770 -3.201977 -22.149040 -9.211576 -16.197292 -12.662996 -13.130280 -10.456191 69.527611 -1.171813 4.032975 -1.118950 4.284814 12.283369 
-0.728264 48.000282 5.186285 -9.897652 -0.557083 -10.410703 33.011101 -3.075484 1.212337 -11.658737 -5.817410 1.815150 10.145292 1.230148 1.308921 -4.394492 6.337142 -0.883237 -8.614383 -6.502444 -0.009593 -59.333988 -7.632100 12.424935 -133.842621 3.183666 41.078194 5.212265 21.754858 1.928322 20.488283 5.000000 -0.000851 61.754436 -25.623323 3.870397 79.672691 -2.946255 35.627720 12.311229 24.504610 5.164569 -11.864329 2.236322 2.066616 42.866581 -0.546381 -3.193800 -22.867987 -9.884217 -16.634752 -13.745878 -12.767930 -10.675141 67.714752 -1.054781 4.008113 -1.680658 5.883994 12.411623 
-0.842488 48.009384 5.739547 -9.726141 -0.452214 -9.853899 33.012318 -3.056320 0.830980 -11.323237 -5.281563 1.431413 9.368894 1.054433 1.260091 -3.775564 6.307898 -0.854122 -8.585097 -6.570808 -0.009593 -59.160995 -8.463954 12.005019 -134.641861 3.155340 40.630459 3.969023 22.579288 1.510115 20.244141 4.482422 -0.000763 61.341934 -26.056107 5.993460 79.531914 -2.857159 34.289703 8.444994 24.947021 3.575313 -11.326385 2.177350 1.962896 42.866283 -0.539748 -3.201025 -23.714693 -10.107542 -16.922892 -14.734982 -12.390963 -10.691577 64.733292 -0.839704 3.952479 -3.073253 7.215094 12.641306 
-0.956711 48.018482 6.292809 -9.563980 -0.337317 -9.287292 33.013199 -3.046781 0.449622 -10.993965 -4.735553 1.038072 8.592944 0.878707 1.220859 -3.157741 6.278635 -0.834711 -8.565578 -6.639170 -0.009592 -58.982262 -9.303773 11.594890 -135.432312 3.134264 40.187801 2.709227 23.395000 1.069683 20.000635 3.961504 -0.009829 60.905220 -26.471544 8.135475 79.389496 -2.756546 32.955280 4.548433 25.301195 1.948242 -10.784867 2.127362 1.877514 42.865921 -0.539758 -3.210708 -24.537302 -10.312903 -17.200089 -15.716950 -11.985998 -10.705116 61.742538 -0.644444 3.854333 -4.485556 8.578924 12.924473 
-1.069073 48.033787 6.883643 -9.506422 -0.337484 -9.111514 33.234562 -2.978506 0.146286 -11.343934 -4.228160 0.743767 8.144154 0.820089 1.338033 -2.559094 6.191025 -0.638436 -8.438624 -6.639192 -0.009595 -59.089832 -9.181496 12.028439 -135.827408 3.138383 40.376247 3.975497 23.027014 1.551663 20.039658 3.697826 -0.009785 60.563389 -27.288141 9.715536 79.939583 -2.725938 32.615479 1.501478 25.676117 0.642936 -10.025614 2.040458 1.498027 42.866581 -0.546379 -3.193799 -25.310415 -9.966118 -17.215090 -16.176649 -11.537881 -10.583344 57.434910 -0.361075 3.735306 -5.365496 9.157416 13.131132 
-1.181431 48.049088 7.474473 -9.437581 -0.347296 -8.935736 33.444920 -2.900381 -0.146791 -11.689368 -3.720588 0.449539 7.685111 0.751711 1.455209 -1.952332 6.103327 -0.450826 -8.321439 -6.648978 -0.009598 -59.199127 -9.063088 12.469769 -136.216736 3.146226 40.558399 5.238641 22.639282 2.023417 20.068911 3.434149 -0.009741 60.196487 -28.096231 11.310695 80.494049 -2.708021 32.280811 -1.558365 25.987532 -0.689286 -9.250882 1.970931 1.135319 42.866283 -0.539751 -3.201024 -26.065784 -9.651044 -17.221500 -16.625906 -11.069649 -10.467039 53.127693 -0.070116 3.571075 -6.234105 9.747920 13.352376 
-1.273665 48.053085 8.067715 -8.962802 -0.318225 -9.082215 33.089558 -2.802703 -0.274065 -11.530050 -3.427696 0.273532 6.768270 0.790757 1.465109 -1.189937 6.103400 -0.352685 -8.370246 -6.522016 -0.009599 -59.055214 -8.823869 12.772744 -136.346375 3.115401 40.126106 5.763690 22.378895 2.194663 19.805227 3.375597 -0.009747 59.761635 -28.275351 12.525107 81.270409 -2.662575 31.868393 -4.026846 26.212263 -1.797053 -8.982116 1.884321 0.868165 43.002934 -0.536716 -3.206516 -26.672878 -9.136535 -17.122328 -17.137856 -10.692761 -10.629137 48.076305 0.204983 3.383985 -6.991966 9.407040 13.436781 
-1.365900 48.057076 8.660975 -8.486708 -0.298832 -9.209113 32.723469 -2.695250 -0.391111 -11.372536 -3.134761 0.097510 5.851189 0.820041 1.474878 -0.416731 6.103460 -0.244833 -8.420134 -6.393625 -0.019201 -58.912102 -8.578126 13.080544 -136.486160 3.088870 39.699406 6.280394 22.116692 2.366868 19.541548 3.317046 -0.009753 59.332249 -28.447878 13.728859 82.052650 -2.641172 31.452892 -6.482980 26.385702 -2.896076 -8.681849 1.797256 0.617949 43.148979 -0.533828 -3.222208 -27.268042 -8.646813 -16.997765 -17.641603 -10.318221 -10.782818 43.004406 0.488293 3.159477 -7.710284 9.070364 13.494333 
-1.468956 48.023163 9.328666 -8.322230 -0.163743 -9.492231 32.594181 -2.656125 -0.557400 -11.617292 -3.183592 -0.068796 5.502676 1.854699 1.651422 -0.373352 4.814422 0.205994 -8.545929 -5.955580 -0.009605 -58.789940 -7.535058 13.084205 -135.975067 3.108033 39.944901 6.035379 21.561747 2.219533 19.307224 3.619818 -0.009815 59.063168 -28.791649 14.511191 83.044449 -2.603844 31.140003 -8.259068 26.865587 -3.767268 -8.046974 1.589428 0.603562 43.402611 -0.500812 -3.231790 -27.884508 -8.281474 -16.943630 -17.653576 -10.261438 -11.216822 38.066231 0.742025 2.930734 -7.162779 8.352991 13.346746 
-1.572022 47.989239 9.996359 -8.157437 -0.038496 -9.765630 32.474316 -2.607214 -0.723685 -11.851956 -3.242160 -0.235105 5.160554 2.889155 1.828772 -0.330184 3.525153 0.665808 -8.672808 -5.516106 -0.009609 -58.670628 -6.486609 13.105531 -135.457397 3.131492 40.191906 5.803256 21.005674 2.079920 19.072897 3.922590 -0.009876 58.791988 -29.136286 15.291836 84.038971 -2.582057 30.833250 -10.051571 27.321184 -4.658620 -7.421859 1.387121 0.568142 43.675823 -0.504998 -3.246555 -28.519932 -7.929786 -16.874626 -17.652262 -10.211548 -11.630174 33.096687 0.991411 2.652653 -6.609608 7.651093 13.148850 
-1.728226 47.911758 10.682046 -8.129374 -0.086574 -9.931659 32.484535 -2.431258 -1.016782 -12.033621 -2.675646 -0.576911 4.661734 2.732503 2.121851 -0.061383 3.085433 1.036809 -8.565382 -5.496592 -0.009612 -58.679985 -5.201416 13.999187 -134.464050 3.161327 40.695854 6.069142 20.850594 2.159928 18.975224 3.795653 -0.009861 58.681728 -29.082659 15.352652 85.157547 -2.569300 30.693579 -10.859183 27.675989 -5.095891 -6.703114 1.444088 0.545049 44.232616 -0.478423 -3.253604 -29.278910 -7.704957 -16.896721 -17.411158 -10.136071 -12.530037 28.836300 1.152119 2.430691 -5.870150 7.386254 13.035997 
-1.884437 47.834270 11.367734 -8.109059 -0.144211 -10.107463 32.502941 -2.265034 -1.309887 -12.211925 -2.109099 -0.928543 4.151987 2.575821 2.424693 0.201473 2.635924 1.407906 -8.448195 -5.486847 -0.009615 -58.671974 -3.917475 14.893336 -133.479813 3.193873 41.201950 6.324497 20.705315 2.236184 18.876955 3.671875 -0.000625 58.574417 -29.020576 15.408885 86.274422 -2.560436 30.558571 -11.677283 28.015839 -5.541396 -5.986227 1.504078 0.532905 44.778519 -0.456249 -3.290730 -30.037386 -7.481503 -16.927235 -17.165010 -10.036393 -13.401278 24.553936 1.318059 2.151302 -5.132957 7.112482 12.911665 
